<?xml version="1.0" encoding="UTF-8" standalone="no"?>
<!DOCTYPE svg PUBLIC "-//W3C//DTD SVG 1.1//EN" "http://www.w3.org/Graphics/SVG/1.1/DTD/svg11.dtd">
<svg width="100%" height="100%" viewBox="0 0 1731 338" version="1.1" xmlns="http://www.w3.org/2000/svg" xmlns:xlink="http://www.w3.org/1999/xlink" xml:space="preserve" xmlns:serif="http://www.serif.com/" style="fill-rule:evenodd;clip-rule:evenodd;stroke-linejoin:round;stroke-miterlimit:2;">
    <g transform="matrix(1,0,0,1,-102.529,-371.355)">
        <g transform="matrix(2.62309,0,0,2.62309,-103.524,-145.527)">
            <g transform="matrix(96,0,0,96,221.582,296.804)">
                <path d="M0.622,-0.071C0.59,-0.043 0.553,-0.022 0.513,-0.007C0.473,0.008 0.431,0.015 0.388,0.015C0.355,0.015 0.323,0.011 0.292,0.002C0.261,-0.006 0.233,-0.019 0.206,-0.034C0.179,-0.05 0.155,-0.069 0.133,-0.091C0.111,-0.113 0.092,-0.137 0.076,-0.164C0.061,-0.191 0.048,-0.22 0.04,-0.251C0.031,-0.282 0.027,-0.314 0.027,-0.347C0.027,-0.38 0.031,-0.412 0.04,-0.443C0.048,-0.473 0.061,-0.502 0.076,-0.529C0.092,-0.556 0.111,-0.58 0.133,-0.602C0.155,-0.624 0.179,-0.643 0.206,-0.659C0.233,-0.674 0.261,-0.686 0.292,-0.695C0.323,-0.704 0.355,-0.708 0.388,-0.708C0.431,-0.708 0.473,-0.701 0.513,-0.686C0.553,-0.671 0.59,-0.65 0.622,-0.622L0.549,-0.5C0.528,-0.521 0.503,-0.538 0.476,-0.551C0.448,-0.563 0.419,-0.569 0.388,-0.569C0.358,-0.569 0.329,-0.563 0.302,-0.551C0.275,-0.54 0.252,-0.524 0.231,-0.504C0.211,-0.484 0.195,-0.46 0.184,-0.433C0.172,-0.406 0.166,-0.378 0.166,-0.347C0.166,-0.316 0.172,-0.287 0.184,-0.26C0.195,-0.233 0.211,-0.21 0.231,-0.189C0.252,-0.169 0.275,-0.153 0.302,-0.142C0.329,-0.13 0.358,-0.124 0.388,-0.124C0.406,-0.124 0.423,-0.126 0.439,-0.13C0.456,-0.135 0.472,-0.14 0.487,-0.148L0.487,-0.347L0.622,-0.347L0.622,-0.071Z" style="fill:white;fill-rule:nonzero;"/>
            </g>
            <g transform="matrix(96,0,0,96,285.426,296.804)">
                <path d="M0.556,-0.266C0.556,-0.227 0.549,-0.191 0.535,-0.157C0.521,-0.123 0.502,-0.094 0.478,-0.07C0.454,-0.045 0.426,-0.026 0.393,-0.011C0.361,0.003 0.326,0.01 0.289,0.01C0.252,0.01 0.218,0.003 0.185,-0.011C0.153,-0.026 0.125,-0.045 0.1,-0.07C0.076,-0.094 0.057,-0.123 0.043,-0.157C0.029,-0.191 0.022,-0.227 0.022,-0.266C0.022,-0.306 0.029,-0.343 0.043,-0.376C0.057,-0.41 0.076,-0.44 0.1,-0.464C0.125,-0.489 0.153,-0.508 0.185,-0.522C0.218,-0.536 0.252,-0.543 0.289,-0.543C0.326,-0.543 0.361,-0.536 0.393,-0.523C0.426,-0.51 0.454,-0.491 0.478,-0.467C0.502,-0.443 0.521,-0.414 0.535,-0.38C0.549,-0.346 0.556,-0.308 0.556,-0.266ZM0.422,-0.266C0.422,-0.288 0.418,-0.307 0.411,-0.324C0.404,-0.342 0.395,-0.357 0.383,-0.369C0.371,-0.382 0.357,-0.392 0.341,-0.398C0.324,-0.405 0.307,-0.408 0.289,-0.408C0.271,-0.408 0.254,-0.405 0.238,-0.398C0.221,-0.392 0.207,-0.382 0.196,-0.369C0.184,-0.357 0.174,-0.342 0.167,-0.324C0.161,-0.307 0.157,-0.288 0.157,-0.266C0.157,-0.246 0.161,-0.227 0.167,-0.21C0.174,-0.193 0.184,-0.178 0.196,-0.165C0.207,-0.152 0.221,-0.142 0.238,-0.135C0.254,-0.128 0.271,-0.124 0.289,-0.124C0.307,-0.124 0.324,-0.127 0.341,-0.134C0.357,-0.141 0.371,-0.151 0.383,-0.163C0.395,-0.175 0.404,-0.19 0.411,-0.208C0.418,-0.226 0.422,-0.245 0.422,-0.266Z" style="fill:white;fill-rule:nonzero;"/>
            </g>
            <g transform="matrix(96,0,0,96,341.02,296.804)">
                <path d="M0.556,-0.266C0.556,-0.227 0.549,-0.191 0.535,-0.157C0.521,-0.123 0.502,-0.094 0.478,-0.07C0.454,-0.045 0.426,-0.026 0.393,-0.011C0.361,0.003 0.326,0.01 0.289,0.01C0.252,0.01 0.218,0.003 0.185,-0.011C0.153,-0.026 0.125,-0.045 0.1,-0.07C0.076,-0.094 0.057,-0.123 0.043,-0.157C0.029,-0.191 0.022,-0.227 0.022,-0.266C0.022,-0.306 0.029,-0.343 0.043,-0.376C0.057,-0.41 0.076,-0.44 0.1,-0.464C0.125,-0.489 0.153,-0.508 0.185,-0.522C0.218,-0.536 0.252,-0.543 0.289,-0.543C0.326,-0.543 0.361,-0.536 0.393,-0.523C0.426,-0.51 0.454,-0.491 0.478,-0.467C0.502,-0.443 0.521,-0.414 0.535,-0.38C0.549,-0.346 0.556,-0.308 0.556,-0.266ZM0.422,-0.266C0.422,-0.288 0.418,-0.307 0.411,-0.324C0.404,-0.342 0.395,-0.357 0.383,-0.369C0.371,-0.382 0.357,-0.392 0.341,-0.398C0.324,-0.405 0.307,-0.408 0.289,-0.408C0.271,-0.408 0.254,-0.405 0.238,-0.398C0.221,-0.392 0.207,-0.382 0.196,-0.369C0.184,-0.357 0.174,-0.342 0.167,-0.324C0.161,-0.307 0.157,-0.288 0.157,-0.266C0.157,-0.246 0.161,-0.227 0.167,-0.21C0.174,-0.193 0.184,-0.178 0.196,-0.165C0.207,-0.152 0.221,-0.142 0.238,-0.135C0.254,-0.128 0.271,-0.124 0.289,-0.124C0.307,-0.124 0.324,-0.127 0.341,-0.134C0.357,-0.141 0.371,-0.151 0.383,-0.163C0.395,-0.175 0.404,-0.19 0.411,-0.208C0.418,-0.226 0.422,-0.245 0.422,-0.266Z" style="fill:white;fill-rule:nonzero;"/>
            </g>
            <g transform="matrix(96,0,0,96,396.614,296.804)">
                <path d="M0.556,-0L0.524,-0L0.472,-0.072C0.459,-0.06 0.446,-0.05 0.432,-0.04C0.418,-0.03 0.403,-0.021 0.387,-0.014C0.372,-0.007 0.356,-0.001 0.339,0.003C0.323,0.008 0.306,0.01 0.289,0.01C0.252,0.01 0.218,0.003 0.185,-0.011C0.153,-0.025 0.125,-0.044 0.1,-0.069C0.076,-0.093 0.057,-0.122 0.043,-0.156C0.029,-0.19 0.022,-0.226 0.022,-0.266C0.022,-0.306 0.029,-0.342 0.043,-0.376C0.057,-0.41 0.076,-0.439 0.1,-0.464C0.125,-0.489 0.153,-0.508 0.185,-0.522C0.218,-0.536 0.252,-0.543 0.289,-0.543C0.301,-0.543 0.313,-0.542 0.325,-0.54C0.338,-0.538 0.35,-0.535 0.362,-0.531C0.374,-0.526 0.385,-0.52 0.396,-0.513C0.406,-0.506 0.415,-0.497 0.422,-0.487L0.422,-0.731L0.556,-0.731L0.556,-0ZM0.422,-0.266C0.422,-0.284 0.418,-0.302 0.411,-0.319C0.404,-0.336 0.395,-0.351 0.383,-0.365C0.371,-0.378 0.357,-0.388 0.341,-0.396C0.324,-0.404 0.307,-0.408 0.289,-0.408C0.271,-0.408 0.254,-0.405 0.238,-0.398C0.221,-0.392 0.207,-0.383 0.196,-0.37C0.184,-0.358 0.174,-0.343 0.167,-0.326C0.161,-0.308 0.157,-0.288 0.157,-0.266C0.157,-0.247 0.161,-0.229 0.167,-0.211C0.174,-0.194 0.184,-0.179 0.196,-0.166C0.207,-0.153 0.221,-0.143 0.238,-0.135C0.254,-0.128 0.271,-0.124 0.289,-0.124C0.307,-0.124 0.324,-0.128 0.341,-0.136C0.357,-0.144 0.371,-0.155 0.383,-0.168C0.395,-0.181 0.404,-0.196 0.411,-0.213C0.418,-0.23 0.422,-0.248 0.422,-0.266Z" style="fill:white;fill-rule:nonzero;"/>
            </g>
            <g transform="matrix(96,0,0,96,454.879,296.804)">
                <path d="M0.338,-0L0.033,-0L0.033,-0.133L0.338,-0.133C0.347,-0.133 0.355,-0.136 0.361,-0.143C0.368,-0.149 0.371,-0.157 0.371,-0.166C0.371,-0.175 0.368,-0.182 0.361,-0.185C0.355,-0.188 0.347,-0.189 0.338,-0.189L0.199,-0.189C0.176,-0.189 0.154,-0.193 0.134,-0.202C0.114,-0.211 0.097,-0.223 0.082,-0.238C0.067,-0.253 0.055,-0.271 0.046,-0.291C0.038,-0.311 0.033,-0.333 0.033,-0.356C0.033,-0.379 0.038,-0.401 0.046,-0.421C0.055,-0.441 0.067,-0.459 0.082,-0.474C0.097,-0.489 0.114,-0.5 0.134,-0.509C0.154,-0.518 0.176,-0.522 0.199,-0.522L0.469,-0.522L0.469,-0.389L0.199,-0.389C0.19,-0.389 0.182,-0.386 0.176,-0.379C0.169,-0.373 0.166,-0.365 0.166,-0.356C0.166,-0.347 0.169,-0.338 0.176,-0.332C0.182,-0.325 0.19,-0.322 0.199,-0.322L0.338,-0.322C0.361,-0.322 0.382,-0.318 0.402,-0.31C0.423,-0.303 0.44,-0.292 0.455,-0.278C0.47,-0.265 0.482,-0.248 0.491,-0.229C0.5,-0.21 0.504,-0.189 0.504,-0.166C0.504,-0.143 0.5,-0.121 0.491,-0.101C0.482,-0.081 0.47,-0.064 0.455,-0.049C0.44,-0.033 0.423,-0.022 0.402,-0.013C0.382,-0.004 0.361,-0 0.338,-0Z" style="fill:white;fill-rule:nonzero;"/>
            </g>
            <g transform="matrix(96,0,0,96,505.176,296.804)">
                <path d="M0.205,-0.56L0.205,-0.28L0.345,-0.28C0.364,-0.28 0.382,-0.283 0.399,-0.291C0.416,-0.298 0.431,-0.308 0.444,-0.321C0.457,-0.333 0.467,-0.348 0.474,-0.365C0.481,-0.383 0.485,-0.401 0.485,-0.42C0.485,-0.439 0.481,-0.457 0.474,-0.474C0.467,-0.491 0.457,-0.506 0.444,-0.519C0.431,-0.532 0.416,-0.542 0.399,-0.549C0.382,-0.556 0.364,-0.56 0.345,-0.56L0.205,-0.56ZM0.205,-0L0.065,-0L0.065,-0.7L0.345,-0.7C0.371,-0.7 0.396,-0.697 0.419,-0.69C0.443,-0.684 0.465,-0.674 0.486,-0.662C0.507,-0.65 0.526,-0.635 0.543,-0.618C0.56,-0.601 0.574,-0.582 0.587,-0.561C0.599,-0.54 0.608,-0.518 0.615,-0.494C0.622,-0.47 0.625,-0.446 0.625,-0.42C0.625,-0.382 0.618,-0.345 0.603,-0.311C0.588,-0.277 0.568,-0.248 0.543,-0.222C0.518,-0.197 0.488,-0.177 0.454,-0.162C0.42,-0.147 0.384,-0.14 0.345,-0.14L0.205,-0.14L0.205,-0Z" style="fill:rgb(27,154,170);fill-rule:nonzero;"/>
            </g>
            <g transform="matrix(96,0,0,96,566.817,296.804)">
                <path d="M0.556,-0.266C0.556,-0.227 0.549,-0.191 0.535,-0.157C0.521,-0.123 0.502,-0.094 0.478,-0.07C0.454,-0.045 0.426,-0.026 0.393,-0.011C0.361,0.003 0.326,0.01 0.289,0.01C0.252,0.01 0.218,0.003 0.185,-0.011C0.153,-0.026 0.125,-0.045 0.1,-0.07C0.076,-0.094 0.057,-0.123 0.043,-0.157C0.029,-0.191 0.022,-0.227 0.022,-0.266C0.022,-0.306 0.029,-0.343 0.043,-0.376C0.057,-0.41 0.076,-0.44 0.1,-0.464C0.125,-0.489 0.153,-0.508 0.185,-0.522C0.218,-0.536 0.252,-0.543 0.289,-0.543C0.326,-0.543 0.361,-0.536 0.393,-0.523C0.426,-0.51 0.454,-0.491 0.478,-0.467C0.502,-0.443 0.521,-0.414 0.535,-0.38C0.549,-0.346 0.556,-0.308 0.556,-0.266ZM0.422,-0.266C0.422,-0.288 0.418,-0.307 0.411,-0.324C0.404,-0.342 0.395,-0.357 0.383,-0.369C0.371,-0.382 0.357,-0.392 0.341,-0.398C0.324,-0.405 0.307,-0.408 0.289,-0.408C0.271,-0.408 0.254,-0.405 0.238,-0.398C0.221,-0.392 0.207,-0.382 0.196,-0.369C0.184,-0.357 0.174,-0.342 0.167,-0.324C0.161,-0.307 0.157,-0.288 0.157,-0.266C0.157,-0.246 0.161,-0.227 0.167,-0.21C0.174,-0.193 0.184,-0.178 0.196,-0.165C0.207,-0.152 0.221,-0.142 0.238,-0.135C0.254,-0.128 0.271,-0.124 0.289,-0.124C0.307,-0.124 0.324,-0.127 0.341,-0.134C0.357,-0.141 0.371,-0.151 0.383,-0.163C0.395,-0.175 0.404,-0.19 0.411,-0.208C0.418,-0.226 0.422,-0.245 0.422,-0.266Z" style="fill:rgb(27,154,170);fill-rule:nonzero;"/>
            </g>
            <g transform="matrix(96,0,0,96,622.411,296.804)">
                <path d="M0.208,-0.665C0.208,-0.653 0.206,-0.641 0.201,-0.63C0.196,-0.62 0.19,-0.61 0.182,-0.602C0.174,-0.594 0.164,-0.588 0.153,-0.583C0.142,-0.579 0.131,-0.576 0.118,-0.576C0.106,-0.576 0.094,-0.579 0.083,-0.583C0.072,-0.588 0.063,-0.594 0.055,-0.602C0.047,-0.61 0.041,-0.62 0.036,-0.63C0.031,-0.641 0.029,-0.653 0.029,-0.665C0.029,-0.677 0.031,-0.689 0.036,-0.699C0.041,-0.71 0.047,-0.72 0.055,-0.728C0.063,-0.736 0.072,-0.742 0.083,-0.747C0.094,-0.752 0.106,-0.754 0.118,-0.754C0.131,-0.754 0.142,-0.752 0.153,-0.747C0.164,-0.742 0.174,-0.736 0.182,-0.728C0.19,-0.72 0.196,-0.71 0.201,-0.699C0.206,-0.689 0.208,-0.677 0.208,-0.665ZM0.185,-0L0.051,-0L0.051,-0.523L0.185,-0.523L0.185,-0Z" style="fill:rgb(27,154,170);fill-rule:nonzero;"/>
            </g>
            <g transform="matrix(96,0,0,96,645.051,296.804)">
                <path d="M0.184,-0L0.051,-0L0.051,-0.523L0.083,-0.523L0.127,-0.472C0.148,-0.492 0.173,-0.507 0.2,-0.517C0.227,-0.528 0.256,-0.533 0.285,-0.533C0.317,-0.533 0.347,-0.527 0.375,-0.515C0.404,-0.503 0.429,-0.486 0.45,-0.465C0.471,-0.443 0.488,-0.418 0.5,-0.39C0.512,-0.361 0.518,-0.331 0.518,-0.299L0.518,-0L0.385,-0L0.385,-0.299C0.385,-0.313 0.382,-0.325 0.377,-0.338C0.372,-0.35 0.365,-0.361 0.355,-0.37C0.346,-0.379 0.336,-0.386 0.324,-0.391C0.312,-0.396 0.299,-0.399 0.285,-0.399C0.271,-0.399 0.258,-0.396 0.246,-0.391C0.233,-0.386 0.222,-0.379 0.213,-0.37C0.204,-0.361 0.197,-0.35 0.192,-0.338C0.187,-0.325 0.184,-0.313 0.184,-0.299L0.184,-0Z" style="fill:rgb(27,154,170);fill-rule:nonzero;"/>
            </g>
            <g transform="matrix(96,0,0,96,698.348,296.804)">
                <path d="M0.313,-0C0.281,-0 0.25,-0.006 0.222,-0.018C0.194,-0.031 0.169,-0.047 0.148,-0.069C0.126,-0.09 0.11,-0.115 0.097,-0.143C0.085,-0.171 0.079,-0.202 0.079,-0.234L0.079,-0.389L0.014,-0.389L0.014,-0.522L0.079,-0.522L0.079,-0.731L0.212,-0.731L0.212,-0.522L0.414,-0.522L0.414,-0.389L0.212,-0.389L0.212,-0.234C0.212,-0.22 0.215,-0.207 0.22,-0.195C0.225,-0.182 0.232,-0.172 0.241,-0.163C0.25,-0.153 0.261,-0.146 0.273,-0.141C0.286,-0.135 0.299,-0.133 0.313,-0.133L0.414,-0.133L0.414,-0L0.313,-0Z" style="fill:rgb(27,154,170);fill-rule:nonzero;"/>
            </g>
        </g>
        <g transform="matrix(1,0,0,1,-688.906,272.118)">
            <g transform="matrix(1,0,0,1,-243.932,-183.918)">
                <path d="M1204.01,283.155L1350.06,367.478L1350.06,536.122L1204.01,620.444L1057.96,536.122L1057.96,367.478L1204.01,283.155Z" style="fill:rgb(27,154,170);"/>
            </g>
            <g transform="matrix(3.83067,0,0,6.63798,-2306,-1119.1)">
                <clipPath id="_clip1">
                    <path d="M852.614,183.54L890.741,196.243L890.741,221.649L852.614,234.352L814.487,221.649L814.487,196.243L852.614,183.54Z"/>
                </clipPath>
                <g clip-path="url(#_clip1)">
                    <circle cx="814.214" cy="183.716" r="38.138" style="fill:white;"/>
                </g>
            </g>
            <g transform="matrix(3.83067,0,0,6.63798,-2014.22,-1119.1)">
                <clipPath id="_clip2">
                    <path d="M776.443,183.54L814.57,196.243L814.57,221.649L776.443,234.352L738.317,221.649L738.317,196.243L776.443,183.54Z"/>
                </clipPath>
                <g clip-path="url(#_clip2)">
                    <circle cx="814.214" cy="183.716" r="38.138" style="fill:white;"/>
                </g>
            </g>
        </g>
    </g>
</svg>
