<?xml version="1.0" encoding="UTF-8" standalone="no"?>
<!DOCTYPE svg PUBLIC "-//W3C//DTD SVG 1.1//EN" "http://www.w3.org/Graphics/SVG/1.1/DTD/svg11.dtd">
<svg width="100%" height="100%" viewBox="0 0 338 338" version="1.1" xmlns="http://www.w3.org/2000/svg" xmlns:xlink="http://www.w3.org/1999/xlink" xml:space="preserve" xmlns:serif="http://www.serif.com/" style="fill-rule:evenodd;clip-rule:evenodd;stroke-linejoin:round;stroke-miterlimit:2;">
    <g transform="matrix(1,0,0,1,-791.355,-371.355)">
        <g transform="matrix(1,0,0,1,-0.079188,272.118)">
            <g transform="matrix(1,0,0,1,-243.932,-183.918)">
                <path d="M1204.01,283.155L1350.06,367.478L1350.06,536.122L1204.01,620.444L1057.96,536.122L1057.96,367.478L1204.01,283.155Z" style="fill:rgb(27,154,170);"/>
            </g>
            <g transform="matrix(3.83067,0,0,6.63798,-2306,-1119.1)">
                <clipPath id="_clip1">
                    <path d="M852.614,183.54L890.741,196.243L890.741,221.649L852.614,234.352L814.487,221.649L814.487,196.243L852.614,183.54Z"/>
                </clipPath>
                <g clip-path="url(#_clip1)">
                    <circle cx="814.214" cy="183.716" r="38.138" style="fill:rgb(5,5,5);"/>
                </g>
            </g>
            <g transform="matrix(3.83067,0,0,6.63798,-2014.22,-1119.1)">
                <clipPath id="_clip2">
                    <path d="M776.443,183.54L814.57,196.243L814.57,221.649L776.443,234.352L738.317,221.649L738.317,196.243L776.443,183.54Z"/>
                </clipPath>
                <g clip-path="url(#_clip2)">
                    <circle cx="814.214" cy="183.716" r="38.138" style="fill:rgb(5,5,5);"/>
                </g>
            </g>
        </g>
        <g transform="matrix(1.88567,0,0,1.88567,422.974,86.8182)">
            <g transform="matrix(96,0,0,96,221.582,296.804)">
                <path d="M0.622,-0.071C0.59,-0.043 0.553,-0.022 0.513,-0.007C0.473,0.008 0.431,0.015 0.388,0.015C0.355,0.015 0.323,0.011 0.292,0.002C0.261,-0.006 0.233,-0.019 0.206,-0.034C0.179,-0.05 0.155,-0.069 0.133,-0.091C0.111,-0.113 0.092,-0.137 0.076,-0.164C0.061,-0.191 0.048,-0.22 0.04,-0.251C0.031,-0.282 0.027,-0.314 0.027,-0.347C0.027,-0.38 0.031,-0.412 0.04,-0.443C0.048,-0.473 0.061,-0.502 0.076,-0.529C0.092,-0.556 0.111,-0.58 0.133,-0.602C0.155,-0.624 0.179,-0.643 0.206,-0.659C0.233,-0.674 0.261,-0.686 0.292,-0.695C0.323,-0.704 0.355,-0.708 0.388,-0.708C0.431,-0.708 0.473,-0.701 0.513,-0.686C0.553,-0.671 0.59,-0.65 0.622,-0.622L0.549,-0.5C0.528,-0.521 0.503,-0.538 0.476,-0.551C0.448,-0.563 0.419,-0.569 0.388,-0.569C0.358,-0.569 0.329,-0.563 0.302,-0.551C0.275,-0.54 0.252,-0.524 0.231,-0.504C0.211,-0.484 0.195,-0.46 0.184,-0.433C0.172,-0.406 0.166,-0.378 0.166,-0.347C0.166,-0.316 0.172,-0.287 0.184,-0.26C0.195,-0.233 0.211,-0.21 0.231,-0.189C0.252,-0.169 0.275,-0.153 0.302,-0.142C0.329,-0.13 0.358,-0.124 0.388,-0.124C0.406,-0.124 0.423,-0.126 0.439,-0.13C0.456,-0.135 0.472,-0.14 0.487,-0.148L0.487,-0.347L0.622,-0.347L0.622,-0.071Z" style="fill:white;fill-rule:nonzero;"/>
            </g>
            <g transform="matrix(96,0,0,96,285.426,296.804)">
                <path d="M0.205,-0.56L0.205,-0.28L0.345,-0.28C0.364,-0.28 0.382,-0.283 0.399,-0.291C0.416,-0.298 0.431,-0.308 0.444,-0.321C0.457,-0.333 0.467,-0.348 0.474,-0.365C0.481,-0.383 0.485,-0.401 0.485,-0.42C0.485,-0.439 0.481,-0.457 0.474,-0.474C0.467,-0.491 0.457,-0.506 0.444,-0.519C0.431,-0.532 0.416,-0.542 0.399,-0.549C0.382,-0.556 0.364,-0.56 0.345,-0.56L0.205,-0.56ZM0.205,-0L0.065,-0L0.065,-0.7L0.345,-0.7C0.371,-0.7 0.396,-0.697 0.419,-0.69C0.443,-0.684 0.465,-0.674 0.486,-0.662C0.507,-0.65 0.526,-0.635 0.543,-0.618C0.56,-0.601 0.574,-0.582 0.587,-0.561C0.599,-0.54 0.608,-0.518 0.615,-0.494C0.622,-0.47 0.625,-0.446 0.625,-0.42C0.625,-0.382 0.618,-0.345 0.603,-0.311C0.588,-0.277 0.568,-0.248 0.543,-0.222C0.518,-0.197 0.488,-0.177 0.454,-0.162C0.42,-0.147 0.384,-0.14 0.345,-0.14L0.205,-0.14L0.205,-0Z" style="fill:white;fill-rule:nonzero;"/>
            </g>
        </g>
    </g>
</svg>
